inDegrees=yes
name=ik_MT_2026-09-05_11h40_01210270-000-000_orientations
DataType=double
version=3
OpenSimVersion=4.5
endheader
time	pelvis_tilt	pelvis_list	pelvis_rotation	pelvis_tx	pelvis_ty	pelvis_tz	hip_flexion_r	hip_adduction_r	hip_rotation_r	knee_angle_r	knee_angle_r_beta	ankle_angle_r	subtalar_angle_r	mtp_angle_r	hip_flexion_l	hip_adduction_l	hip_rotation_l	knee_angle_l	knee_angle_l_beta	ankle_angle_l	subtalar_angle_l	mtp_angle_l	lumbar_extension	lumbar_bending	lumbar_rotation	arm_flex_r	arm_add_r	arm_rot_r	elbow_flex_r	pro_sup_r	wrist_flex_r	wrist_dev_r	arm_flex_l	arm_add_l	arm_rot_l	elbow_flex_l	pro_sup_l	wrist_flex_l	wrist_dev_l
0	0.07439634268122654	-0.03621831231813018	153.2576983821645	0	0.9399999999999999	0	0.08601541429155754	0.006566760589093096	0.004956888009028931	-0.01381681844362082	-0.0002411489739914619	-0.01793568055673922	0	0	0.09912338072012081	0.004616816920088514	-0.003779793284622616	0.0006556695539074314	1.144359252076713e-05	-0.02455486743840138	0	0	0.1099930500977873	0.008580194175224107	0.00550260273425939	-0.4449435754779505	-0.1011534071442504	-0.01021601316060297	0.8485689692668476	16.53723962534507	0	0	-0.4465586053598657	-0.08932823219104111	-0.007049759871116878	0.8513382144573572	16.53723962534507	0	0
0.025	0.06080787056374581	-0.04060971781223058	153.2554237260289	0	0.9399999999999999	0	0.07862422474183556	-0.02370641505444231	-0.009149800901732268	-0.0267926839926937	-0.0004676205511188855	-0.02443782029840088	0	0	0.05625636542408351	0.01820875085880113	-0.02842420775107693	-0.0297224606498333	-0.0005187548001340445	-0.02058496413996315	0	0	0.1090440235174064	0.01312183941471962	0.00787355424319699	-0.4356975209430189	-0.1111235860786636	-0.06325778823348166	0.8608682439470696	20.74994740371205	0	0	-0.4464086667122399	-0.1126599524191371	0.0366890526358284	0.8340165092614192	20.74994740371205	0	0
0.05	0.08645552877927321	-0.0566839673477857	153.2513222277268	0	0.9399999999999999	0	0.09125207839098153	-0.02683643059633015	0.006479861902754983	-0.04568362165535002	-0.00079732961212124	-0.007023921594643889	0	0	0.06151076185502451	0.03674858904106288	-0.02844326856016257	-0.06640932477672852	-0.001159061371380161	-0.0001042706417884161	0	0	0.1471822619334183	0.02467687447091503	0.0169438159929417	-0.4242682684956137	-0.1094464764374767	-0.1157372157005101	0.8753455551840796	24.55814919645202	0	0	-0.4543537699889314	-0.1388430703724649	0.1077555660419439	0.8323447735516826	24.55814919645202	0	0
0.075	0.07881507630656143	-0.05149130454417434	153.2433603048619	0	0.9399999999999999	0	0.1230321189226292	-0.03722075244590636	5.012626678021675e-05	-0.03319858766746976	-0.0005794246618093318	-0.06545715503083802	0	0	0.0683648273518935	0.04626076899380555	-0.04024496419452681	-0.0760975966921205	-0.001328153615132248	-0.06390201452437214	0	0	0.2022063396787078	0.03352065553794068	0.03390583810463578	-0.4783311973223573	-0.08559838703136721	-0.0973307106570656	0.8709635996640778	28.234969670357	0	0	-0.5110631414912727	-0.1627015550144978	0.1601471971029599	0.8240502235329016	28.234969670357	0	0
0.1	0.0428178557751386	-0.04243851940901631	153.2275799382122	0	0.9399999999999999	0	0.1036513861888962	-0.05307416437322539	-0.004151318549158172	-0.01343031112375932	-0.0002344031486768198	-0.07621035917930426	0	0	0.04088194131572741	0.05991799799602093	-0.06715153377818017	-0.07832387651556136	-0.001367009528122009	-0.06918012041937571	0	0	0.2340228941960771	0.032653300531974	0.08632023566083134	-0.541906132373251	-0.09868396394964842	-0.1397135701716151	0.8626530013450291	30.84389633053841	0	0	-0.582099562424255	-0.1992910014618298	0.2393463463145777	0.8166179494306489	30.84389633053841	0	0
0.125	0.07740646036963297	-0.06727522560440019	153.203616032336	0	0.9399999999999999	0	0.09135958728663625	-0.06136854467376046	0.007376846356065115	-0.04894516452403912	-0.000854254273874806	0.01369620088722749	0	0	0.01814576941758002	0.07321272121099888	-0.06416707325781544	-0.1203308425445119	-0.002100169394100604	0.01392758270979137	0	0	0.4332492271041346	0.02817996238796341	0.1116276477525193	-0.7178899913030919	-0.09854020007832168	-0.1609992700240606	0.8744244382712405	33.05055829017565	0	0	-0.7475668493978905	-0.2125024801950388	0.2575610070541468	0.8247416157175076	33.05055829017565	0	0
0.15	0.08987697347417449	-0.08022063304425242	153.1887431870268	0	0.9399999999999999	0	0.150339903722431	-0.07455606713701418	0.03849667797414029	-0.03378656698951653	-0.0005896868369126919	-0.02989243327977132	0	0	0.06648707219948968	0.09034117922652384	-0.1013030080054316	-0.1157897846032935	-0.002020912981502508	-0.02283666615091255	0	0	0.4911100096300693	0.02654866939448346	0.1513906388890377	-0.7758468897019054	-0.0738749884366586	-0.2418669496774689	0.8905143226875186	34.88318852416769	0	0	-0.7783491946366622	-0.1993286295152645	0.3235295904245353	0.8240456648764024	34.88318852416769	0	0
0.175	0.08096206485271874	-0.07254137812994881	153.1875995299489	0	0.9399999999999999	0	0.1822485004968709	-0.08428526727357469	0.01621086998813271	0.003298964748159229	5.757779676260409e-05	-0.0762090210044878	0	0	0.09368286826365776	0.09484428205791345	-0.1024556447555004	-0.08908816967417368	-0.001554881885389695	-0.07844289984904157	0	0	0.3883390852808304	0.03997119620378368	0.1744955533088265	-0.6457637769721031	-0.08818881547235148	-0.2793942170750751	0.853355483511866	36.2170273206427	0	0	-0.6543032270292219	-0.2250072923309296	0.3275116769750461	0.8062840541400161	36.2170273206427	0	0
0.2	0.1069435513692636	-0.06895626379721748	153.1786975677685	0	0.9399999999999999	0	0.2140086269519398	-0.07257679383394176	0.03523031345141578	0.002302244436307522	4.018174559928713e-05	-0.08741149586937765	0	0	0.12396430382458	0.07402954608693754	-0.1067875950201458	-0.09106409934821089	-0.001589368363989502	-0.0790034360636805	0	0	0.4701266901302187	0.04035356000868436	0.1901499538930521	-0.7223515204505957	-0.0701049285781955	-0.2995452290966288	0.8532811142078179	37.86845964703529	0	0	-0.7188297057073769	-0.2469331328162904	0.325669249594822	0.8123758088535763	37.86845964703529	0	0
0.225	0.1173955712747644	-0.05778712270986919	153.1575854418063	0	0.9399999999999999	0	0.2170635544154479	-0.05260686043355296	0.02807110192557968	0.003944514496560002	6.884476535761857e-05	-0.104324778776697	0	0	0.1446963048687776	0.06917205034505824	-0.1428445666531655	-0.09348132586973938	-0.001631556925556704	-0.09520905958427932	0	0	0.5177581136911422	0.04858514673311599	0.22654303854939	-0.7696925068823262	-0.02734146946566193	-0.3262408646307465	0.8446225009083146	38.88044087727627	0	0	-0.7504379166830315	-0.2453873349596672	0.3087858533494847	0.8103146783993274	38.88044087727627	0	0
0.25	0.1457968777684095	-0.06423768938554646	153.1522686793286	0	0.9399999999999999	0	0.2490539987746972	-0.04942855837818304	0.06393794342507665	-0.006648899358881364	-0.0001160451854462199	-0.09108619950781409	0	0	0.1555352638130821	0.05892531355866574	-0.1419846894536512	-0.1049576117898053	-0.001831855900762121	-0.09177734373284555	0	0	0.6176982145779556	0.04637086375298648	0.2475229557901159	-0.8423184693213875	-0.009118966454037189	-0.3360002059072834	0.8382147471211712	39.74798706728029	0	0	-0.8131149942703966	-0.2666426450991604	0.290421521663538	0.8070643609917567	39.74798706728029	0	0
0.275	0.1570857876244327	-0.06944744352272891	153.1408448439234	0	0.9399999999999999	0	0.2656747098697868	-0.04631855972335526	0.08085542037670931	-0.008494531358050922	-0.0001482575406118939	-0.091733118075788	0	0	0.1773674549126951	0.05480646760220424	-0.1551249998447466	-0.1040859479291922	-0.001816642496423777	-0.1011922024214915	0	0	0.681537709089773	0.03764015392421521	0.2803086829336824	-0.8986660130917336	0.005638421230751149	-0.3432012513228995	0.8402688409767899	40.51075483420878	0	0	-0.8633947928708163	-0.2718753655430582	0.2880091094071345	0.7976846988975765	40.51075483420878	0	0
0.3	0.2286166188917868	-0.1035137102654839	153.1570761593866	0	0.9399999999999999	0	0.3467265448228967	-0.04736830336405391	0.08302633791165978	-0.03804735729103018	-0.0006640516564111469	-0.1047494104185588	0	0	0.2533035604624999	0.06207624298244751	-0.1207465476405009	-0.1313741606498671	-0.002292911655384154	-0.1224421632943404	0	0	0.8902996926544771	0.03693855372270938	0.2741151136786975	-1.046206528864055	0.03053869033720396	-0.3338385996379599	0.8490836089488558	41.31427508015826	0	0	-1.019920235916825	-0.272365439479569	0.3365820916706875	0.7916289176987972	41.31427508015826	0	0
0.325	0.178521505839527	-0.07789903151048617	153.1715723715192	0	0.9399999999999999	0	0.2964086370486234	-0.03736324783978062	0.0404265781748543	-0.006611121255083146	-0.0001153858331497808	-0.08279035621675807	0	0	0.2111629083243969	0.05455040596893912	-0.1483503751535244	-0.09930019548018348	-0.001733115359003193	-0.100032094163436	0	0	0.8581217076536382	0.004881597807470113	0.304189309325107	-1.067065604626217	0.05147858701172786	-0.3517312400767033	0.836469004339884	41.83303718748969	0	0	-1.043644824273573	-0.3075533947536948	0.3904766571939449	0.7891854485018023	41.83303718748969	0	0
